<svg width="25" height="25" viewBox="0 0 25 25" fill="none" xmlns="http://www.w3.org/2000/svg">
<g clip-path="url(#clip0_2075_434)">
<path d="M24.8498 12.8455C24.5793 12.3647 23.9483 12.1844 23.4375 12.4849L20.0121 14.4681L19.1407 14.9789V19.7264L19.952 20.2072C19.982 20.2072 19.982 20.2372 20.0121 20.2372L23.3774 22.1903C23.5277 22.3105 23.738 22.3706 23.9483 22.3706C24.5192 22.3706 24.97 21.9199 24.97 21.349V17.3226L25 13.3563C25 13.176 24.97 12.9957 24.8498 12.8455ZM4.83799 11.3131C7.51223 11.3131 9.67567 9.14962 9.67567 6.47538C9.67567 3.80113 7.51223 1.6377 4.83799 1.6377C2.16374 1.6377 0.000305077 3.80113 0.000305077 6.47538C-0.0297426 9.14962 2.16374 11.3131 4.83799 11.3131ZM4.83799 4.49223C5.94975 4.49223 6.82114 5.39366 6.82114 6.47538C6.82114 7.58714 5.9197 8.45853 4.83799 8.45853C3.75627 8.45853 2.85484 7.5571 2.85484 6.47538C2.82479 5.36361 3.72622 4.49223 4.83799 4.49223ZM17.0975 11.5835C16.3162 11.9741 15.4448 12.2145 14.5134 12.2145C13.3715 12.2145 12.2898 11.884 11.3884 11.283H7.96295C7.06152 11.884 5.9798 12.2145 4.83799 12.2145C3.90651 12.2145 3.03512 12.0042 2.25388 11.5835C1.56279 11.9741 1.08202 12.7553 1.08202 13.5967V20.9283C1.08202 22.2805 2.19379 23.3622 3.51589 23.3622H15.8655C17.2176 23.3622 18.2994 22.2504 18.2994 20.9283V13.5967C18.2693 12.7553 17.7886 11.9741 17.0975 11.5835ZM14.5134 11.3131C17.1876 11.3131 19.351 9.14962 19.351 6.47538C19.351 3.80113 17.1876 1.6377 14.5134 1.6377C11.8391 1.6377 9.67567 3.80113 9.67567 6.47538C9.67567 9.14962 11.8391 11.3131 14.5134 11.3131ZM14.5134 4.49223C15.6251 4.49223 16.4965 5.39366 16.4965 6.47538C16.4965 7.58714 15.5951 8.45853 14.5134 8.45853C13.4316 8.45853 12.5302 7.5571 12.5302 6.47538C12.5302 5.36361 13.4016 4.49223 14.5134 4.49223Z" fill="#3496E7"/>
</g>
<defs>
<clipPath id="clip0_2075_434">
<rect width="25" height="25" fill="white"/>
</clipPath>
</defs>
</svg>
