<svg width="23" height="23" viewBox="0 0 23 23" fill="none" xmlns="http://www.w3.org/2000/svg">
<path d="M4.19766 1.91699H18.8017C19.2272 1.91687 19.6486 2.00059 20.0418 2.16338C20.435 2.32616 20.7922 2.56482 21.0931 2.86572C21.394 3.16662 21.6327 3.52386 21.7954 3.91703C21.9582 4.31019 22.042 4.73158 22.0418 5.15712V14.0112C22.0418 14.8702 21.7006 15.6941 21.0931 16.3016C20.4856 16.9091 19.6617 17.2503 18.8027 17.2503H4.19862C3.77309 17.2505 3.3517 17.1667 2.95853 17.0039C2.56536 16.8412 2.20812 16.6025 1.90723 16.3016C1.60633 16.0007 1.36767 15.6435 1.20488 15.2503C1.04209 14.8571 0.95837 14.4357 0.958496 14.0102V5.15616C0.958496 4.29708 1.29976 3.47318 1.90723 2.86572C2.51469 2.25826 3.33858 1.91699 4.19766 1.91699ZM16.2918 19.167H6.7085C6.45433 19.167 6.21057 19.268 6.03085 19.4477C5.85113 19.6274 5.75016 19.8712 5.75016 20.1253C5.75016 20.3795 5.85113 20.6232 6.03085 20.803C6.21057 20.9827 6.45433 21.0837 6.7085 21.0837H16.2918C16.546 21.0837 16.7898 20.9827 16.9695 20.803C17.1492 20.6232 17.2502 20.3795 17.2502 20.1253C17.2502 19.8712 17.1492 19.6274 16.9695 19.4477C16.7898 19.268 16.546 19.167 16.2918 19.167Z" fill="white"/>
</svg>
