<svg width="24" height="24" viewBox="0 0 24 24" fill="none" xmlns="http://www.w3.org/2000/svg">
<path d="M21.6 5.25C21.6 4.95 21.375 4.65 21.075 4.575L12.225 1.5H11.775L2.85002 4.5C2.77502 4.575 2.62502 4.65 2.55002 4.725L8.55002 6.675C8.92502 6.825 9.15002 7.2 9.00002 7.65C8.85002 8.1 8.40002 8.25 8.02502 8.1L2.40002 6.3C2.40002 6.825 2.40002 7.35 2.47502 7.875L8.55002 9.9C8.92502 10.05 9.15002 10.425 9.00002 10.875C8.77502 11.475 8.25002 11.4 8.02502 11.325L2.62502 9.525C2.70002 10.125 2.85002 10.65 3.00002 11.25L8.55002 13.125C8.92502 13.275 9.15002 13.65 9.00002 14.1C8.85002 14.625 8.25002 14.625 8.02502 14.55L3.52502 13.05C4.95002 16.8 7.57502 19.875 11.55 22.425C11.775 22.575 12.075 22.575 12.375 22.425C18.825 18.225 21.9 12.6 21.6 5.25Z" fill="#3496E7"/>
</svg>
