<svg width="21" height="21" viewBox="0 0 21 21" fill="none" xmlns="http://www.w3.org/2000/svg">
<path d="M6.52344 8.69792H2.17448C1.59777 8.69792 1.04468 8.46882 0.63689 8.06103C0.229096 7.65323 0 7.10015 0 6.52344V2.17448C0 1.59777 0.229096 1.04468 0.63689 0.63689C1.04468 0.229096 1.59777 0 2.17448 0H6.52344C7.10015 0 7.65323 0.229096 8.06103 0.63689C8.46882 1.04468 8.69792 1.59777 8.69792 2.17448V6.52344C8.69792 7.10015 8.46882 7.65323 8.06103 8.06103C7.65323 8.46882 7.10015 8.69792 6.52344 8.69792ZM2.17448 1.44965C1.98224 1.44965 1.79788 1.52602 1.66195 1.66195C1.52602 1.79788 1.44965 1.98224 1.44965 2.17448V6.52344C1.44965 6.71567 1.52602 6.90004 1.66195 7.03597C1.79788 7.1719 1.98224 7.24826 2.17448 7.24826H6.52344C6.71567 7.24826 6.90004 7.1719 7.03597 7.03597C7.1719 6.90004 7.24826 6.71567 7.24826 6.52344V2.17448C7.24826 1.98224 7.1719 1.79788 7.03597 1.66195C6.90004 1.52602 6.71567 1.44965 6.52344 1.44965H2.17448ZM18.1207 0H13.0469C12.4702 0 11.9171 0.229096 11.5093 0.63689C11.1015 1.04468 10.8724 1.59777 10.8724 2.17448V7.24826C10.8724 7.82497 11.1015 8.37806 11.5093 8.78585C11.9171 9.19365 12.4702 9.42274 13.0469 9.42274H18.1207C18.6974 9.42274 19.2505 9.19365 19.6583 8.78585C20.066 8.37806 20.2951 7.82497 20.2951 7.24826V2.17448C20.2951 1.59777 20.066 1.04468 19.6583 0.63689C19.2505 0.229096 18.6974 0 18.1207 0ZM18.1207 20.2951H13.7717C13.195 20.2951 12.6419 20.066 12.2341 19.6583C11.8263 19.2505 11.5972 18.6974 11.5972 18.1207V13.7717C11.5972 13.195 11.8263 12.6419 12.2341 12.2341C12.6419 11.8263 13.195 11.5972 13.7717 11.5972H18.1207C18.6974 11.5972 19.2505 11.8263 19.6583 12.2341C20.066 12.6419 20.2951 13.195 20.2951 13.7717V18.1207C20.2951 18.6974 20.066 19.2505 19.6583 19.6583C19.2505 20.066 18.6974 20.2951 18.1207 20.2951ZM13.7717 13.0469C13.5795 13.0469 13.3951 13.1232 13.2592 13.2592C13.1232 13.3951 13.0469 13.5795 13.0469 13.7717V18.1207C13.0469 18.3129 13.1232 18.4973 13.2592 18.6332C13.3951 18.7691 13.5795 18.8455 13.7717 18.8455H18.1207C18.3129 18.8455 18.4973 18.7691 18.6332 18.6332C18.7691 18.4973 18.8455 18.3129 18.8455 18.1207V13.7717C18.8455 13.5795 18.7691 13.3951 18.6332 13.2592C18.4973 13.1232 18.3129 13.0469 18.1207 13.0469H13.7717ZM7.24826 10.8724H2.17448C1.59777 10.8724 1.04468 11.1015 0.63689 11.5093C0.229096 11.9171 0 12.4702 0 13.0469V18.1207C0 18.6974 0.229096 19.2505 0.63689 19.6583C1.04468 20.066 1.59777 20.2951 2.17448 20.2951H7.24826C7.82497 20.2951 8.37806 20.066 8.78585 19.6583C9.19365 19.2505 9.42274 18.6974 9.42274 18.1207V13.0469C9.42274 12.4702 9.19365 11.9171 8.78585 11.5093C8.37806 11.1015 7.82497 10.8724 7.24826 10.8724Z" fill="#3496E7"/>
</svg>
