<svg width="46" height="37" viewBox="0 0 46 37" fill="none" xmlns="http://www.w3.org/2000/svg">
<path d="M46 16.0662L33.9609 16.0662L33.9609 12.5692C33.9609 10.5714 35.5932 8.94606 37.5996 8.94606L42.2266 8.94606L42.2266 3.48481e-06L37.5996 3.08031e-06C30.6391 2.47181e-06 24.9766 5.63852 24.9766 12.5692L24.9766 37L46 37L46 16.0662ZM21.0234 37L21.0234 16.0662L8.98437 16.0662L8.98437 12.5692C8.98437 10.5714 10.6167 8.94606 12.623 8.94606L17.25 8.94606L17.25 1.30129e-06L12.623 8.96791e-07C5.66258 2.88288e-07 -1.07299e-06 5.63852 -1.67889e-06 12.5692L-3.8147e-06 37L21.0234 37Z" fill="#3496E7"/>
</svg>
