<svg width="14" height="14" viewBox="0 0 14 14" fill="none" xmlns="http://www.w3.org/2000/svg">
<g clip-path="url(#clip0_2075_267)">
<path d="M13.9428 3.39663L5.26244 12.077C5.24429 12.0952 5.22274 12.1096 5.19901 12.1194C5.17528 12.1293 5.14985 12.1343 5.12417 12.1343C5.09849 12.1343 5.07306 12.1293 5.04933 12.1194C5.02561 12.1096 5.00405 12.0952 4.9859 12.077L0.057167 7.14812C0.0205241 7.11147 -6.10352e-05 7.06176 -6.10352e-05 7.00994C-6.10352e-05 6.95811 0.0205241 6.90841 0.057167 6.87176L1.25478 5.67414C1.29146 5.63749 1.3412 5.6169 1.39305 5.6169C1.44491 5.6169 1.49464 5.63749 1.53132 5.67414L5.12435 9.26699L12.4689 1.92248C12.5055 1.88582 12.5553 1.86523 12.6071 1.86523C12.659 1.86523 12.7087 1.88582 12.7454 1.92248L13.9428 3.12009C13.961 3.13824 13.9754 3.1598 13.9853 3.18352C13.9951 3.20725 14.0002 3.23268 14.0002 3.25836C14.0002 3.28405 13.9951 3.30948 13.9853 3.3332C13.9754 3.35693 13.961 3.37848 13.9428 3.39663Z" fill="#3496E7"/>
</g>
<defs>
<clipPath id="clip0_2075_267">
<rect width="14" height="14" fill="white"/>
</clipPath>
</defs>
</svg>
