<svg width="18" height="18" viewBox="0 0 18 18" fill="none" xmlns="http://www.w3.org/2000/svg">
<mask id="mask0_2075_493" style="mask-type:luminance" maskUnits="userSpaceOnUse" x="0" y="0" width="18" height="18">
<path d="M0 0H18V18H0V0Z" fill="white"/>
</mask>
<g mask="url(#mask0_2075_493)">
<path d="M7.35009 2.47471C7.65009 2.17471 7.72509 1.94971 7.87509 1.87471C8.47509 1.34971 9.37509 1.34971 10.0501 1.87471C10.2001 1.94971 10.3501 2.17471 10.5751 2.47471C10.7251 2.62471 10.8001 2.69971 10.8001 2.77471C11.1001 3.07471 11.5501 3.22471 12.0001 3.22471H12.3751C12.8251 3.14971 13.0501 3.14971 13.2001 3.14971C14.0251 3.22471 14.6251 3.89971 14.7001 4.64971C14.7001 4.79971 14.7001 5.02471 14.6251 5.47471V5.84971C14.6251 6.29971 14.7751 6.67471 15.0751 7.04971C15.1501 7.12471 15.2251 7.19971 15.3751 7.27471C15.6751 7.57471 15.9001 7.64971 15.9751 7.79971C16.5001 8.39971 16.5001 9.29971 15.9751 9.97471C15.9001 10.1247 15.6751 10.2747 15.3751 10.4997C15.2251 10.6497 15.1501 10.7247 15.0751 10.7247C14.7751 11.0247 14.6251 11.4747 14.6251 11.9247V12.2997C14.7001 12.7497 14.7001 12.9747 14.7001 13.1247C14.6251 13.9497 13.9501 14.5497 13.2001 14.6247C13.0501 14.6247 12.8251 14.6247 12.3751 14.5497H12.0001C11.5501 14.5497 11.1751 14.6997 10.8001 14.9997C10.7251 15.0747 10.6501 15.1497 10.5751 15.2997C10.2751 15.5997 10.2001 15.8247 10.0501 15.8997C9.45009 16.4247 8.55009 16.4247 7.87509 15.8997C7.72509 15.8247 7.57509 15.5997 7.35009 15.2997C7.20009 15.1497 7.12509 15.0747 7.12509 14.9997C6.82509 14.6997 6.37509 14.5497 5.92509 14.5497H5.55009C5.10009 14.6247 4.87509 14.6247 4.72509 14.6247C3.90009 14.5497 3.30009 13.8747 3.22509 13.1247C3.22509 12.9747 3.22509 12.7497 3.30009 12.2997V11.9247C3.30009 11.4747 3.15009 11.0997 2.85009 10.7247C2.77509 10.6497 2.70009 10.5747 2.55009 10.4997C2.25009 10.1997 2.02509 10.1247 1.95009 9.97471C1.42509 9.37471 1.42509 8.47471 1.95009 7.79971C2.02509 7.64971 2.25009 7.49971 2.55009 7.27471C2.70009 7.12471 2.77509 7.04971 2.85009 7.04971C3.15009 6.74971 3.30009 6.29971 3.30009 5.84971V5.47471C3.22509 5.09971 3.22509 4.87471 3.22509 4.72471C3.30009 3.89971 3.97509 3.29971 4.72509 3.22471C4.87509 3.22471 5.10009 3.22471 5.55009 3.29971H5.92509C6.37509 3.29971 6.75009 3.14971 7.12509 2.84971C7.20009 2.69971 7.27509 2.62471 7.35009 2.47471Z" fill="#3496E7"/>
<path d="M8.25008 11.0998C8.10008 11.0998 7.95008 11.0248 7.87508 10.9498L6.37508 9.4498C6.15008 9.2248 6.15008 8.8498 6.37508 8.6248C6.60008 8.3998 6.97508 8.3998 7.20008 8.6248L8.32508 9.7498L10.9501 7.1248C11.1751 6.8998 11.5501 6.8998 11.7751 7.1248C12.0001 7.3498 12.0001 7.7248 11.7751 7.94981L8.77508 10.9498C8.55008 11.0248 8.40008 11.0998 8.25008 11.0998Z" fill="white"/>
</g>
</svg>
