<svg width="21" height="21" viewBox="0 0 21 21" fill="none" xmlns="http://www.w3.org/2000/svg">
<path d="M4 17C3.505 17 3.3522 16.3424 3 16C2.6478 15.6576 2.0006 15.4818 2 15V5C2 4.51875 2.6472 4.34242 3 4C3.3528 3.65758 3.5056 3.00058 4 3H18C18.495 3 18.6472 3.657 19 4C19.3528 4.343 20.0006 4.51933 20 5V15C20 15.4812 19.3522 15.657 19 16C18.6478 16.343 18.4956 17.0006 18 17H4ZM11 11C10.925 11.0437 11.0822 10.9778 11 11L18 7C18.12 6.92708 17.94 6.10908 18 6C18 6.13183 18.06 5.89092 18 6C18 5.70833 18.255 5.14583 18 5C17.745 4.85417 17.27 4.83958 17 5L11 9L5 5C4.73 4.83958 4.255 4.84658 4 5C3.745 5.15342 4 5.7235 4 6C3.94 5.89033 4 6.14583 4 6C4.06 6.10967 3.88 6.94225 4 7L11 11C11.075 11.0437 10.9172 10.9778 11 11C11.0828 11.0222 10.9256 11.0006 11 11C11.0744 10.9994 10.9166 11.021 11 11Z" fill="white"/>
</svg>
