<svg width="19" height="19" viewBox="0 0 19 19" fill="none" xmlns="http://www.w3.org/2000/svg">
<g clip-path="url(#clip0_2075_486)">
<path d="M8.99999 -0.000348846C3.63812 0.280788 -0.223638 4.67868 -1.25151e-05 9.99965C0.097663 12.3287 0.778932 13.7892 0.999987 15.9997C1.05654 16.5722 1.34196 17.7495 1.99999 17.9997C2.80967 18.3066 4.3214 17.4717 4.99999 16.9997C4.83034 17.2266 5.23132 16.8423 4.99999 16.9997C5.70171 17.4665 6.16461 17.7985 6.99999 17.9997C10.6782 18.8843 15.2084 16.2521 17 12.9997C20.3672 6.88943 15.9941 -0.366601 8.99999 -0.000348846ZM6.99999 12.9997C6.70953 13.2266 6.32129 12.8217 5.99999 12.9997C5.53474 13.2498 5.17478 13.4123 4.99999 12.9997C4.44992 11.6868 4.67869 9.37439 4.99999 7.99965C5.43182 6.1297 6.0182 4.17504 7.99999 3.99965C10.0049 3.82168 12.1595 5.15549 13 6.99965C14.861 11.1032 10.6885 15.517 6.99999 12.9997Z" fill="white"/>
</g>
<defs>
<clipPath id="clip0_2075_486">
<rect width="19" height="19" fill="white"/>
</clipPath>
</defs>
</svg>
